<svg width="100" height="100" viewBox="0 0 100 100" fill="none" xmlns="http://www.w3.org/2000/svg">
<mask id="path-1-inside-1" fill="white">
<path fill-rule="evenodd" clip-rule="evenodd" d="M37.5 3C37.5 1.34314 38.8431 0 40.5 0H59.5C61.1569 0 62.5 1.34315 62.5 3V11.9919C64.4129 12.6206 66.262 13.3897 68.0353 14.287L74.3952 7.92714C75.5668 6.75557 77.4663 6.75557 78.6378 7.92715L92.0729 21.3622C93.2444 22.5337 93.2444 24.4332 92.0729 25.6048L85.713 31.9647C86.6103 33.738 87.3794 35.5871 88.0081 37.5H97C98.6569 37.5 100 38.8431 100 40.5V59.5C100 61.1569 98.6569 62.5 97 62.5H88.0081C87.3794 64.4129 86.6103 66.262 85.713 68.0353L92.0729 74.3952C93.2444 75.5668 93.2444 77.4663 92.0729 78.6378L78.6378 92.0729C77.4663 93.2444 75.5668 93.2444 74.3952 92.0729L68.0353 85.713C66.262 86.6103 64.4129 87.3794 62.5 88.0081V97C62.5 98.6569 61.1569 100 59.5 100H40.5C38.8431 100 37.5 98.6569 37.5 97V88.0081C35.5871 87.3794 33.738 86.6103 31.9647 85.713L25.6048 92.0729C24.4332 93.2444 22.5338 93.2444 21.3622 92.0729L7.92715 78.6378C6.75558 77.4663 6.75558 75.5668 7.92715 74.3952L14.287 68.0353C13.3897 66.262 12.6206 64.4129 11.9919 62.5H3C1.34314 62.5 0 61.1569 0 59.5V40.5C0 38.8431 1.34315 37.5 3 37.5H11.9919C12.6206 35.5871 13.3897 33.738 14.287 31.9647L7.92714 25.6048C6.75557 24.4332 6.75557 22.5337 7.92715 21.3622L21.3622 7.92715C22.5337 6.75557 24.4332 6.75557 25.6048 7.92715L31.9647 14.287C33.738 13.3897 35.5871 12.6206 37.5 11.9919V3Z"/>
</mask>
<path d="M62.5 11.9919H57.5V15.6116L60.9388 16.7419L62.5 11.9919ZM68.0353 14.287L65.7779 18.7484L69.0097 20.3837L71.5709 17.8225L68.0353 14.287ZM74.3952 7.92714L77.9307 11.4627L77.9307 11.4627L74.3952 7.92714ZM78.6378 7.92715L82.1734 4.39161L82.1734 4.39161L78.6378 7.92715ZM92.0729 21.3622L95.6084 17.8266L95.6084 17.8266L92.0729 21.3622ZM92.0729 25.6048L95.6084 29.1404L95.6084 29.1403L92.0729 25.6048ZM85.713 31.9647L82.1775 28.4292L79.6163 30.9903L81.2516 34.2222L85.713 31.9647ZM88.0081 37.5L83.2581 39.0612L84.3884 42.5H88.0081V37.5ZM88.0081 62.5V57.5H84.3884L83.2581 60.9388L88.0081 62.5ZM85.713 68.0353L81.2516 65.7778L79.6163 69.0097L82.1775 71.5709L85.713 68.0353ZM92.0729 74.3952L95.6084 70.8597L95.6084 70.8597L92.0729 74.3952ZM92.0729 78.6378L88.5373 75.1023L88.5373 75.1023L92.0729 78.6378ZM78.6378 92.0729L82.1734 95.6084L82.1734 95.6084L78.6378 92.0729ZM74.3952 92.0729L70.8597 95.6084L70.8597 95.6084L74.3952 92.0729ZM68.0353 85.713L71.5709 82.1775L69.0097 79.6163L65.7778 81.2516L68.0353 85.713ZM62.5 88.0081L60.9388 83.2581L57.5 84.3884V88.0081H62.5ZM37.5 88.0081H42.5V84.3884L39.0612 83.2581L37.5 88.0081ZM31.9647 85.713L34.2222 81.2516L30.9903 79.6163L28.4292 82.1775L31.9647 85.713ZM25.6048 92.0729L29.1403 95.6084L29.1404 95.6084L25.6048 92.0729ZM21.3622 92.0729L17.8266 95.6084L17.8266 95.6084L21.3622 92.0729ZM7.92715 78.6378L4.39161 82.1734L4.39161 82.1734L7.92715 78.6378ZM7.92715 74.3952L4.39162 70.8597L4.39161 70.8597L7.92715 74.3952ZM14.287 68.0353L17.8225 71.5709L20.3837 69.0097L18.7484 65.7779L14.287 68.0353ZM11.9919 62.5L16.7419 60.9388L15.6116 57.5H11.9919V62.5ZM11.9919 37.5V42.5H15.6116L16.7419 39.0612L11.9919 37.5ZM14.287 31.9647L18.7484 34.2222L20.3837 30.9903L17.8225 28.4291L14.287 31.9647ZM7.92714 25.6048L4.39161 29.1403L4.39161 29.1403L7.92714 25.6048ZM7.92715 21.3622L4.39161 17.8266L4.39161 17.8266L7.92715 21.3622ZM21.3622 7.92715L24.8977 11.4627L24.8977 11.4627L21.3622 7.92715ZM25.6048 7.92715L22.0693 11.4627L22.0693 11.4627L25.6048 7.92715ZM31.9647 14.287L28.4291 17.8225L30.9903 20.3837L34.2222 18.7484L31.9647 14.287ZM37.5 11.9919L39.0612 16.7419L42.5 15.6116V11.9919H37.5ZM40.5 -5C36.0817 -5 32.5 -1.41829 32.5 3H42.5C42.5 4.10457 41.6046 5 40.5 5V-5ZM59.5 -5H40.5V5H59.5V-5ZM67.5 3C67.5 -1.41828 63.9183 -5 59.5 -5V5C58.3954 5 57.5 4.10457 57.5 3H67.5ZM67.5 11.9919V3H57.5V11.9919H67.5ZM60.9388 16.7419C62.6105 17.2914 64.2271 17.9637 65.7779 18.7484L70.2928 9.82565C68.297 8.81577 66.2152 7.94987 64.0612 7.24189L60.9388 16.7419ZM70.8597 4.39161L64.4998 10.7515L71.5709 17.8225L77.9307 11.4627L70.8597 4.39161ZM82.1734 4.39161C79.0492 1.26743 73.9839 1.2674 70.8597 4.39161L77.9307 11.4627C77.1497 12.2437 75.8833 12.2437 75.1023 11.4627L82.1734 4.39161ZM95.6084 17.8266L82.1734 4.39161L75.1023 11.4627L88.5373 24.8977L95.6084 17.8266ZM95.6084 29.1403C98.7326 26.0162 98.7326 20.9508 95.6084 17.8266L88.5373 24.8977C87.7563 24.1167 87.7563 22.8503 88.5373 22.0693L95.6084 29.1403ZM89.2485 35.5002L95.6084 29.1404L88.5373 22.0693L82.1775 28.4292L89.2485 35.5002ZM81.2516 34.2222C82.0363 35.773 82.7086 37.3895 83.2581 39.0612L92.7581 35.9388C92.0501 33.7848 91.1842 31.703 90.1744 29.7072L81.2516 34.2222ZM97 32.5H88.0081V42.5H97V32.5ZM105 40.5C105 36.0817 101.418 32.5 97 32.5V42.5C95.8954 42.5 95 41.6046 95 40.5H105ZM105 59.5V40.5H95V59.5H105ZM97 67.5C101.418 67.5 105 63.9183 105 59.5H95C95 58.3954 95.8954 57.5 97 57.5V67.5ZM88.0081 67.5H97V57.5H88.0081V67.5ZM83.2581 60.9388C82.7086 62.6105 82.0363 64.2271 81.2516 65.7778L90.1744 70.2928C91.1842 68.297 92.0501 66.2152 92.7581 64.0612L83.2581 60.9388ZM95.6084 70.8597L89.2485 64.4998L82.1775 71.5709L88.5373 77.9307L95.6084 70.8597ZM95.6084 82.1734C98.7326 79.0492 98.7326 73.9839 95.6084 70.8597L88.5373 77.9307C87.7563 77.1497 87.7563 75.8833 88.5373 75.1023L95.6084 82.1734ZM82.1734 95.6084L95.6084 82.1734L88.5373 75.1023L75.1023 88.5373L82.1734 95.6084ZM70.8597 95.6084C73.9839 98.7326 79.0492 98.7326 82.1734 95.6084L75.1023 88.5373C75.8834 87.7563 77.1497 87.7563 77.9307 88.5373L70.8597 95.6084ZM64.4998 89.2485L70.8597 95.6084L77.9307 88.5373L71.5709 82.1775L64.4998 89.2485ZM65.7778 81.2516C64.2271 82.0363 62.6105 82.7086 60.9388 83.2581L64.0612 92.7581C66.2152 92.0501 68.297 91.1842 70.2928 90.1744L65.7778 81.2516ZM67.5 97V88.0081H57.5V97H67.5ZM59.5 105C63.9183 105 67.5 101.418 67.5 97H57.5C57.5 95.8954 58.3954 95 59.5 95V105ZM40.5 105H59.5V95H40.5V105ZM32.5 97C32.5 101.418 36.0817 105 40.5 105V95C41.6046 95 42.5 95.8954 42.5 97H32.5ZM32.5 88.0081V97H42.5V88.0081H32.5ZM39.0612 83.2581C37.3895 82.7086 35.773 82.0363 34.2222 81.2516L29.7072 90.1744C31.703 91.1842 33.7848 92.0501 35.9388 92.7581L39.0612 83.2581ZM29.1404 95.6084L35.5002 89.2485L28.4292 82.1775L22.0693 88.5373L29.1404 95.6084ZM17.8266 95.6084C20.9508 98.7326 26.0162 98.7326 29.1403 95.6084L22.0693 88.5373C22.8503 87.7563 24.1167 87.7563 24.8977 88.5373L17.8266 95.6084ZM4.39161 82.1734L17.8266 95.6084L24.8977 88.5373L11.4627 75.1023L4.39161 82.1734ZM4.39161 70.8597C1.26742 73.9839 1.26742 79.0492 4.39161 82.1734L11.4627 75.1023C12.2437 75.8833 12.2437 77.1497 11.4627 77.9307L4.39161 70.8597ZM10.7515 64.4998L4.39162 70.8597L11.4627 77.9307L17.8225 71.5709L10.7515 64.4998ZM18.7484 65.7779C17.9637 64.2271 17.2914 62.6105 16.7419 60.9388L7.24189 64.0612C7.94987 66.2152 8.81576 68.297 9.82565 70.2928L18.7484 65.7779ZM3 67.5H11.9919V57.5H3V67.5ZM-5 59.5C-5 63.9183 -1.41829 67.5 3 67.5V57.5C4.10457 57.5 5 58.3954 5 59.5H-5ZM-5 40.5V59.5H5V40.5H-5ZM3 32.5C-1.41828 32.5 -5 36.0817 -5 40.5H5C5 41.6046 4.10457 42.5 3 42.5V32.5ZM11.9919 32.5H3V42.5H11.9919V32.5ZM16.7419 39.0612C17.2914 37.3895 17.9637 35.7729 18.7484 34.2222L9.82564 29.7072C8.81576 31.703 7.94987 33.7848 7.24189 35.9388L16.7419 39.0612ZM4.39161 29.1403L10.7515 35.5002L17.8225 28.4291L11.4627 22.0693L4.39161 29.1403ZM4.39161 17.8266C1.26742 20.9508 1.26741 26.0161 4.39161 29.1403L11.4627 22.0693C12.2437 22.8503 12.2437 24.1167 11.4627 24.8977L4.39161 17.8266ZM17.8266 4.39161L4.39161 17.8266L11.4627 24.8977L24.8977 11.4627L17.8266 4.39161ZM29.1404 4.39161C26.0162 1.26742 20.9508 1.26742 17.8266 4.39161L24.8977 11.4627C24.1167 12.2437 22.8503 12.2437 22.0693 11.4627L29.1404 4.39161ZM35.5002 10.7515L29.1404 4.39161L22.0693 11.4627L28.4291 17.8225L35.5002 10.7515ZM34.2222 18.7484C35.7729 17.9637 37.3895 17.2914 39.0612 16.7419L35.9388 7.24189C33.7848 7.94986 31.703 8.81576 29.7072 9.82564L34.2222 18.7484ZM32.5 3V11.9919H42.5V3H32.5Z" fill="white" mask="url(#path-1-inside-1)"/>
<circle cx="49.5" cy="49.5" r="15" stroke="white" stroke-width="5"/>
</svg>
